<?xml version="1.0" standalone="no"?>
<!DOCTYPE svg PUBLIC "-//W3C//DTD SVG 20010904//EN"
 "http://www.w3.org/TR/2001/REC-SVG-20010904/DTD/svg10.dtd">
<svg version="1.0" xmlns="http://www.w3.org/2000/svg"
 width="32.000000pt" height="32.000000pt" viewBox="0 0 32.000000 32.000000"
 preserveAspectRatio="xMidYMid meet">

<g transform="translate(0.000000,32.000000) scale(0.100000,-0.100000)"
fill="#000000" stroke="none">
<path d="M107 306 c-51 -19 -67 -34 -90 -85 -27 -62 -17 -120 31 -170 105
-111 290 -22 269 130 -13 97 -117 159 -210 125z m18 -121 c19 -16 24 -25 15
-25 -19 0 -60 28 -60 41 0 15 13 10 45 -16z m94 3 c0 -13 -3 -17 -6 -10 -2 6
-9 12 -14 12 -15 0 -10 -26 6 -40 12 -10 13 -15 3 -21 -6 -4 -16 -5 -22 -2 -5
3 -27 8 -49 10 -22 2 -46 8 -54 15 -21 17 -9 19 28 4 28 -11 36 -12 46 -1 6 7
9 16 5 20 -8 8 26 35 45 35 7 0 13 -10 12 -22z m-60 -74 c2 -2 -7 -4 -22 -4
-14 0 -29 5 -32 10 -6 10 42 4 54 -6z m-2 -20 c-3 -3 -12 -4 -19 -1 -8 3 -5 6
6 6 11 1 17 -2 13 -5z"/>
</g>
</svg>
