<?xml version="1.0" standalone="no"?>
<!DOCTYPE svg PUBLIC "-//W3C//DTD SVG 20010904//EN"
 "http://www.w3.org/TR/2001/REC-SVG-20010904/DTD/svg10.dtd">
<svg version="1.0" xmlns="http://www.w3.org/2000/svg"
 width="1200.000000pt" height="1200.000000pt" viewBox="0 0 1200.000000 1200.000000"
 preserveAspectRatio="xMidYMid meet">

<g transform="translate(0.000000,1200.000000) scale(0.100000,-0.100000)"
fill="#000000" stroke="none">
<path d="M0 6000 l0 -6000 6000 0 6000 0 0 6000 0 6000 -6000 0 -6000 0 0
-6000z m9745 5043 c-121 -7 -253 -7 -248 0 2 4 70 6 151 5 81 -1 125 -3 97 -5z
m365 -10 c0 -12 -3 -14 -8 -6 -4 7 -37 14 -72 16 l-65 3 73 2 c63 2 72 0 72
-15z m298 10 c-27 -2 -69 -2 -95 0 -27 2 -5 3 47 3 52 0 74 -1 48 -3z m561
-15 c-1 -17 -2 -19 -6 -5 -4 15 -21 17 -184 17 -130 0 -179 -3 -179 -12 0 -6
-3 -9 -6 -5 -21 21 20 27 192 27 l184 0 -1 -22z m-1114 -13 c17 -16 25 -34 24
-57 -1 -19 -3 -25 -6 -13 -2 11 -6 30 -9 42 -2 12 -17 29 -32 37 -15 9 -21 15
-14 16 7 0 24 -11 37 -25z m653 5 c12 -12 22 -26 22 -33 0 -6 -7 -1 -16 11 -9
13 -26 27 -38 32 -14 6 -16 9 -5 9 8 1 25 -8 37 -19z m-1027 -41 c-6 -18 -11
-36 -11 -40 0 -5 61 -9 135 -9 74 0 135 -3 135 -7 0 -5 -63 -7 -140 -5 -92 2
-140 7 -140 14 0 19 23 88 28 84 2 -3 -1 -19 -7 -37z m353 22 c25 -27 23 -84
-5 -122 -22 -31 -88 -68 -121 -69 -24 0 -24 -3 22 -71 46 -66 43 -72 -31 -67
-40 3 -46 7 -89 68 -26 36 -53 66 -61 68 -10 2 -22 -19 -38 -68 l-22 -70 -45
0 c-27 0 -44 4 -44 12 0 7 14 56 32 110 l32 98 127 0 c140 0 159 4 159 30 0
26 -19 30 -146 30 -64 0 -114 4 -114 9 0 5 4 21 10 35 l10 26 153 0 c140 0
156 -2 171 -19z m197 -153 l-58 -173 -51 -3 c-29 -2 -52 1 -52 5 0 5 23 76 50
158 28 83 49 157 47 166 -4 13 7 16 59 18 l63 2 -58 -173z m459 152 c27 -27
25 -58 -7 -159 -36 -109 -69 -145 -150 -161 -76 -16 -198 -7 -224 16 -31 28
-31 49 -4 137 52 168 78 187 248 187 104 0 119 -2 137 -20z m450 11 c0 -5 -4
-21 -10 -35 -9 -24 -14 -26 -69 -26 l-59 0 -47 -140 -47 -140 -44 0 c-24 0
-44 4 -44 8 0 4 18 62 40 127 22 65 40 125 40 132 0 9 -17 13 -55 13 -30 0
-55 2 -55 4 0 1 5 17 11 35 l11 31 164 0 c95 0 164 -4 164 -9z m-781 -28 c-40
-47 -42 -49 -34 -33 10 19 47 60 53 60 3 0 -5 -12 -19 -27z m378 -35 c-3 -8
-6 -5 -6 6 -1 11 2 17 5 13 3 -3 4 -12 1 -19z m-10 -40 c-3 -8 -6 -5 -6 6 -1
11 2 17 5 13 3 -3 4 -12 1 -19z m150 0 c-3 -8 -6 -5 -6 6 -1 11 2 17 5 13 3
-3 4 -12 1 -19z m-1089 -5 l-137 -4 -7 -32 c-4 -17 -9 -27 -11 -21 -2 6 1 23
6 37 l11 27 137 -2 138 -2 -137 -3z m263 -31 c-5 -10 -18 -25 -27 -33 -11 -9
-9 -2 6 19 26 35 36 42 21 14z m-65 -57 c-11 -8 -25 -15 -30 -15 -6 1 0 7 14
15 32 19 40 18 16 0z m-50 -23 c-3 -5 13 -35 35 -68 21 -32 39 -62 39 -66 0
-5 -38 -8 -84 -8 l-85 0 -42 60 c-23 33 -46 60 -50 60 -5 0 -9 5 -9 10 0 23
18 6 59 -55 l44 -65 79 0 c61 0 77 3 72 13 -4 6 -25 38 -46 70 -29 43 -35 57
-23 57 9 0 14 -4 11 -8z m901 -14 c-3 -8 -6 -5 -6 6 -1 11 2 17 5 13 3 -3 4
-12 1 -19z m-551 -90 c5 -8 1 -5 -8 5 -11 12 -18 33 -17 56 l2 36 6 -42 c4
-23 11 -47 17 -55z m-637 -26 c33 1 61 0 61 -4 0 -5 -31 -8 -70 -8 -60 0 -70
2 -70 18 0 13 2 14 9 4 6 -10 26 -13 70 -10z m536 -2 c-3 -5 -36 -9 -73 -8
l-67 2 70 6 c39 4 71 7 73 8 2 1 0 -2 -3 -8z m382 4 c-3 -3 -12 -4 -19 -1 -8
3 -5 6 6 6 11 1 17 -2 13 -5z m363 -6 c0 -5 -31 -8 -70 -8 -38 0 -70 3 -70 8
0 4 32 7 70 7 39 0 70 -3 70 -7z m-452 -5 c-27 -2 -69 -2 -95 0 -27 2 -5 3 47
3 52 0 74 -1 48 -3z m-7805 -40 c11 -10 -13 -33 -34 -33 -23 0 -25 -16 -4 -24
21 -8 19 -32 -5 -56 -16 -16 -33 -20 -80 -20 -33 0 -60 2 -60 4 0 26 17 36 59
37 l46 0 -35 12 c-43 15 -52 48 -18 71 22 16 118 23 131 9z m173 -15 c-4 -13
-8 -27 -9 -33 -7 -28 -21 -35 -78 -35 -32 0 -59 4 -59 9 0 5 7 25 15 45 15 36
16 36 76 36 59 0 61 -1 55 -22z m168 16 c24 -9 19 -48 -10 -73 -19 -17 -23
-26 -15 -34 17 -17 13 -27 -8 -27 -11 0 -28 11 -39 25 -11 14 -22 25 -25 25
-3 0 -8 -11 -11 -25 -4 -16 -13 -25 -26 -25 -25 0 -25 13 1 70 11 25 20 46 20
48 -5 17 7 22 48 22 27 0 56 -3 65 -6z m115 -11 c0 -10 -8 -40 -18 -68 -13
-37 -23 -51 -39 -53 -12 -2 -22 1 -22 5 0 11 30 115 37 126 9 15 43 7 42 -10z
m174 11 c4 -4 3 -12 0 -18 -4 -6 -8 -17 -9 -24 -6 -38 -14 -42 -73 -42 -57 0
-84 11 -61 25 6 4 8 11 5 16 -4 5 -1 9 5 9 6 0 8 5 5 10 -13 20 8 30 64 30 32
0 61 -3 64 -6z m195 -11 c-2 -11 -15 -20 -32 -23 -26 -4 -27 -6 -13 -19 22
-17 22 -39 0 -63 -12 -13 -31 -18 -73 -18 -31 0 -60 3 -63 7 -16 15 19 33 67
34 47 1 48 2 16 8 -65 13 -77 34 -40 71 28 28 143 30 138 3z m542 2 c16 -19 3
-54 -25 -67 -20 -9 -22 -14 -14 -30 6 -11 8 -22 5 -25 -9 -10 -56 7 -53 19 1
7 -6 14 -15 16 -11 2 -18 -3 -18 -13 0 -17 -24 -30 -39 -21 -9 6 -4 28 28 109
10 25 15 27 65 27 35 0 58 -5 66 -15z m102 9 c3 -3 -4 -34 -15 -70 -18 -55
-24 -64 -45 -64 -15 0 -22 5 -19 13 2 6 13 38 23 70 12 39 23 57 34 57 9 0 19
-3 22 -6z m177 -8 c17 -20 -5 -92 -33 -112 -27 -18 -100 -18 -115 0 -17 20 5
92 33 112 27 18 100 18 115 0z m189 -3 c-2 -10 -13 -19 -25 -21 -16 -2 -26
-16 -38 -53 -13 -37 -21 -49 -37 -49 -16 0 -19 4 -14 23 18 63 19 77 2 77 -16
0 -22 21 -9 33 3 4 33 7 65 7 51 0 59 -2 56 -17z m302 2 c15 -18 5 -52 -20
-65 -13 -7 -17 -18 -14 -35 3 -20 0 -25 -15 -25 -11 0 -25 9 -31 20 -13 24
-40 27 -40 5 0 -18 -24 -30 -39 -21 -9 6 -4 28 28 109 10 25 15 27 65 27 35 0
58 -5 66 -15z m160 -55 c0 -72 -9 -85 -39 -57 -11 10 -13 10 -7 0 5 -10 -6
-13 -44 -13 -29 0 -50 4 -48 8 2 5 21 36 43 70 33 51 45 62 68 62 27 0 27 0
27 -70z m211 49 c16 -31 -2 -46 -36 -31 -29 13 -65 16 -65 5 0 -5 -3 -18 -6
-30 -6 -20 -3 -23 24 -23 17 0 34 5 37 10 9 15 35 12 35 -5 0 -26 -45 -46 -97
-44 -55 3 -62 15 -42 76 14 43 44 63 96 63 33 0 45 -5 54 -21z m185 -1 c-4
-13 -8 -29 -10 -36 -4 -21 -19 -30 -56 -35 -33 -4 -33 -4 8 -5 39 -2 42 -4 32
-22 -9 -16 -21 -20 -69 -20 -32 0 -60 3 -64 6 -5 5 4 35 32 107 10 25 14 27
72 27 59 0 61 -1 55 -22z m178 6 c22 -21 21 -27 -16 -59 -28 -25 -29 -29 -15
-40 18 -13 13 -25 -11 -25 -14 0 -63 34 -59 41 1 2 -4 -2 -10 -10 -7 -8 -13
-18 -13 -23 0 -4 -9 -8 -20 -8 -24 0 -25 9 -6 55 8 18 12 36 8 39 -3 3 0 6 6
6 7 0 11 3 11 8 -5 27 4 32 55 32 36 0 60 -5 70 -16z m209 9 c11 -10 -14 -33
-36 -33 -19 0 -19 -1 -4 -18 41 -45 2 -82 -86 -82 -50 0 -58 2 -55 18 2 9 13
18 26 20 23 4 29 16 12 27 -15 9 -12 36 7 57 12 13 31 18 73 18 31 0 60 -3 63
-7z m302 -35 c-1 -22 -11 -52 -22 -66 -16 -22 -29 -28 -71 -30 -64 -4 -77 13
-56 73 18 53 39 66 101 64 l51 -2 -3 -39z m195 12 c0 -22 -39 -73 -52 -67 -2
1 1 -3 7 -8 21 -21 15 -35 -16 -35 -16 0 -28 3 -25 8 2 4 -2 15 -9 25 -13 18
-14 17 -30 -7 -19 -28 -45 -35 -45 -12 0 8 5 27 12 43 6 15 12 34 14 41 8 40
13 43 79 41 63 -2 65 -3 65 -29z m100 22 c0 -4 -9 -36 -21 -70 -18 -53 -24
-62 -44 -62 l-24 0 20 58 c10 31 21 63 24 70 5 13 45 17 45 4z m188 -9 c-2
-14 -15 -19 -56 -21 -46 -3 -54 -6 -62 -28 -15 -38 -13 -41 20 -36 17 2 32 12
35 23 4 10 15 19 26 19 22 0 23 -6 8 -49 -11 -30 -13 -31 -69 -31 -73 0 -85
14 -64 74 19 55 37 66 107 66 50 0 58 -2 55 -17z m92 9 c0 -4 -9 -36 -21 -70
-18 -54 -24 -62 -46 -62 -16 0 -23 5 -20 13 2 6 13 38 23 70 15 48 21 57 41
57 13 0 23 -4 23 -8z m98 -22 c21 -37 27 -37 41 0 7 20 17 30 30 30 26 0 26
-2 0 -78 -26 -76 -48 -82 -79 -22 -18 35 -34 54 -28 33 1 -5 -3 -23 -9 -40
-11 -30 -31 -42 -46 -27 -5 5 24 102 38 124 12 19 36 10 53 -20z m232 -40 c0
-72 -9 -85 -39 -57 -11 10 -13 10 -7 0 5 -10 -6 -13 -44 -13 -29 0 -50 4 -48
8 2 5 21 36 43 70 33 51 45 62 68 62 27 0 27 0 27 -70z m116 45 c-19 -80 -21
-73 21 -77 26 -2 38 -8 38 -18 0 -12 -14 -15 -60 -16 -55 -1 -61 0 -63 20 -2
24 16 85 31 104 18 23 40 14 33 -13z m282 8 c-2 -10 -13 -19 -26 -21 -26 -4
-27 -8 -7 -28 20 -20 19 -30 -5 -54 -16 -16 -33 -20 -80 -20 -53 0 -60 2 -60
20 0 15 7 20 25 20 29 0 31 6 10 26 -20 20 -19 26 5 52 17 18 32 22 81 22 52
0 60 -2 57 -17z m2346 -5 c13 -21 -17 -58 -47 -58 -19 0 -19 -1 -4 -18 23 -25
21 -32 -7 -32 -14 0 -30 10 -40 25 -9 14 -20 25 -25 25 -5 0 -12 -11 -15 -25
-4 -16 -13 -25 -26 -25 -23 0 -24 5 -9 49 11 30 13 31 70 31 33 0 59 4 59 10
0 6 -25 10 -55 10 -51 0 -65 7 -48 24 4 4 36 6 72 4 47 -2 67 -7 75 -20z m146
-5 c0 -16 3 -45 6 -65 6 -33 4 -38 -14 -38 -20 0 -32 24 -32 69 0 21 -4 18
-35 -23 -23 -28 -44 -46 -57 -46 -20 0 -20 1 4 33 13 17 35 47 48 65 17 23 32
32 52 32 24 0 28 -4 28 -27z m205 14 c10 -8 15 -19 11 -25 -9 -15 -46 -16 -46
-2 0 6 -16 10 -35 10 -29 0 -37 -5 -45 -26 -6 -14 -10 -30 -10 -35 0 -12 67
-12 75 1 7 11 45 14 45 3 0 -3 -7 -15 -17 -25 -12 -13 -31 -18 -73 -18 -72 0
-83 11 -64 65 7 22 14 41 14 43 0 1 10 7 23 12 34 13 101 12 122 -3z m185 -2
c0 -12 -15 -15 -75 -15 -62 0 -73 2 -69 15 5 11 23 15 75 15 55 0 69 -3 69
-15z m164 9 c27 -10 20 -53 -11 -66 -39 -17 -38 -16 -18 -38 18 -19 17 -20 -5
-20 -13 0 -36 12 -52 27 l-27 26 -10 -26 c-7 -17 -18 -27 -30 -27 -19 0 -19 2
-7 38 13 37 13 37 74 40 79 4 81 22 2 22 -49 0 -58 3 -54 15 5 11 22 15 64 15
32 0 65 -3 74 -6z m214 -6 c-3 -8 -27 -14 -59 -16 -62 -4 -93 -22 -37 -22 51
0 68 -9 68 -36 0 -32 -28 -44 -105 -44 -49 0 -66 3 -63 13 3 7 28 13 66 15 70
3 85 22 18 22 -60 0 -76 21 -42 55 22 22 34 25 91 25 49 0 66 -3 63 -12z
m-9228 -58 c0 -46 -3 -60 -14 -60 -11 0 -16 14 -18 48 l-3 47 -30 -47 c-16
-27 -36 -48 -42 -48 -19 0 -17 6 25 65 26 38 44 54 60 55 20 0 22 -4 22 -60z
m218 39 c5 -28 -26 -49 -74 -49 -38 0 -44 -3 -50 -25 -3 -14 -12 -25 -20 -25
-17 0 -17 -1 -3 38 10 29 15 31 62 34 70 4 77 28 7 28 -33 0 -49 4 -45 10 4 6
31 10 63 8 43 -2 58 -7 60 -19z m189 -15 c-3 -20 -13 -47 -22 -60 -13 -21 -23
-24 -72 -24 l-56 0 6 36 c3 20 13 47 22 60 13 21 23 24 72 24 l56 0 -6 -36z
m88 -5 c-21 -57 -20 -59 25 -59 22 0 40 -4 40 -10 0 -6 -26 -10 -59 -10 l-60
0 21 60 c11 34 26 60 33 60 12 0 12 -7 0 -41z m185 32 c0 -5 -7 -27 -15 -50
l-14 -41 44 0 c25 0 45 -4 45 -10 0 -6 -27 -10 -61 -10 -53 0 -60 2 -55 18 2
9 10 36 17 60 7 23 18 42 26 42 7 0 13 -4 13 -9z m274 1 c8 -13 -13 -79 -30
-97 -18 -17 -109 -21 -119 -5 -8 14 12 76 32 95 16 16 108 21 117 7z m1381
-52 c0 -16 -45 -26 -72 -16 -13 5 -13 9 -2 22 16 19 74 15 74 -6z m6503 8 c-3
-8 -26 -14 -54 -16 -69 -4 -82 -22 -16 -22 40 0 52 -4 52 -15 0 -12 -15 -15
-75 -15 -41 0 -75 2 -75 5 0 3 7 21 14 40 l15 35 71 0 c53 0 71 -3 68 -12z
m-7413 -58 c0 -11 -14 -16 -54 -18 -69 -4 -88 2 -71 24 18 21 125 16 125 -6z
m453 3 c-3 -15 -16 -19 -66 -21 -57 -3 -62 -1 -62 18 0 18 6 20 66 20 57 0 65
-2 62 -17z m6540 5 c-5 -15 -48 -24 -48 -10 0 14 12 22 33 22 10 0 17 -5 15
-12z m-8438 -248 c0 -5 -20 -10 -45 -10 -25 0 -45 5 -45 10 0 6 20 10 45 10
25 0 45 -4 45 -10z m275 0 c-3 -5 -33 -10 -66 -10 -38 0 -58 4 -54 10 3 6 33
10 66 10 38 0 58 -4 54 -10z m145 0 c0 -5 -20 -10 -45 -10 -25 0 -45 5 -45 10
0 6 20 10 45 10 25 0 45 -4 45 -10z m390 0 c0 -5 -20 -10 -45 -10 -25 0 -45 5
-45 10 0 6 20 10 45 10 25 0 45 -4 45 -10z m280 0 c0 -5 -23 -10 -51 -10 -31
0 -48 4 -44 10 3 6 26 10 51 10 24 0 44 -4 44 -10z m390 0 c0 -6 -64 -10 -171
-10 -111 0 -168 3 -164 10 4 6 72 10 171 10 103 0 164 -4 164 -10z m430 0 c0
-6 -59 -10 -157 -9 -98 0 -150 4 -138 9 29 12 295 12 295 0z m150 0 c0 -5 -23
-10 -51 -10 -31 0 -48 4 -44 10 3 6 26 10 51 10 24 0 44 -4 44 -10z m280 0 c0
-5 -23 -10 -51 -10 -31 0 -48 4 -44 10 3 6 26 10 51 10 24 0 44 -4 44 -10z
m-2350 -30 c0 -5 -20 -10 -45 -10 -25 0 -45 5 -45 10 0 6 20 10 45 10 25 0 45
-4 45 -10z m245 0 c-3 -5 -36 -10 -73 -10 -47 0 -63 3 -52 10 20 13 133 13
125 0z m175 0 c0 -5 -23 -10 -51 -10 -31 0 -48 4 -44 10 3 6 26 10 51 10 24 0
44 -4 44 -10z m390 0 c0 -5 -20 -10 -45 -10 -25 0 -45 5 -45 10 0 6 20 10 45
10 25 0 45 -4 45 -10z m280 0 c0 -5 -23 -10 -51 -10 -31 0 -48 4 -44 10 3 6
26 10 51 10 24 0 44 -4 44 -10z m390 0 c0 -6 -64 -10 -171 -10 -111 0 -168 3
-164 10 4 6 72 10 171 10 103 0 164 -4 164 -10z m430 0 c0 -6 -65 -10 -176
-10 -114 0 -173 3 -169 10 4 6 73 10 176 10 106 0 169 -4 169 -10z m150 0 c0
-5 -23 -10 -51 -10 -31 0 -48 4 -44 10 3 6 26 10 51 10 24 0 44 -4 44 -10z
m280 0 c0 -5 -23 -10 -51 -10 -31 0 -48 4 -44 10 3 6 26 10 51 10 24 0 44 -4
44 -10z m-2345 -30 c-3 -5 -26 -10 -51 -10 -24 0 -44 5 -44 10 0 6 23 10 51
10 31 0 48 -4 44 -10z m210 0 c-3 -5 -35 -10 -71 -10 -41 0 -63 4 -59 10 3 6
35 10 71 10 41 0 63 -4 59 -10z m205 0 c0 -5 -23 -10 -51 -10 -31 0 -48 4 -44
10 3 6 26 10 51 10 24 0 44 -4 44 -10z m390 0 c0 -5 -23 -10 -51 -10 -31 0
-48 4 -44 10 3 6 26 10 51 10 24 0 44 -4 44 -10z m280 0 c0 -5 -23 -10 -51
-10 -31 0 -48 4 -44 10 3 6 26 10 51 10 24 0 44 -4 44 -10z m390 0 c0 -6 -64
-10 -171 -10 -111 0 -168 3 -164 10 4 6 72 10 171 10 103 0 164 -4 164 -10z
m430 0 c0 -6 -69 -10 -186 -10 -121 0 -183 3 -179 10 4 6 77 10 186 10 113 0
179 -4 179 -10z m150 0 c0 -5 -23 -10 -51 -10 -31 0 -48 4 -44 10 3 6 26 10
51 10 24 0 44 -4 44 -10z m280 0 c0 -5 -23 -10 -51 -10 -31 0 -48 4 -44 10 3
6 26 10 51 10 24 0 44 -4 44 -10z m-2345 -30 c-3 -5 -26 -10 -51 -10 -24 0
-44 5 -44 10 0 6 23 10 51 10 31 0 48 -4 44 -10z m180 0 c-3 -5 -39 -10 -78
-10 -50 0 -67 3 -57 10 20 13 143 13 135 0z m235 0 c0 -5 -23 -10 -51 -10 -31
0 -48 4 -44 10 3 6 26 10 51 10 24 0 44 -4 44 -10z m390 0 c0 -5 -23 -10 -51
-10 -31 0 -48 4 -44 10 3 6 26 10 51 10 24 0 44 -4 44 -10z m280 0 c0 -5 -23
-10 -51 -10 -31 0 -48 4 -44 10 3 6 26 10 51 10 24 0 44 -4 44 -10z m270 0 c0
-5 -23 -10 -51 -10 -31 0 -48 4 -44 10 3 6 26 10 51 10 24 0 44 -4 44 -10z
m275 0 c-3 -5 -26 -10 -51 -10 -24 0 -44 5 -44 10 0 6 23 10 51 10 31 0 48 -4
44 -10z m425 0 c0 -5 -23 -10 -51 -10 -31 0 -48 4 -44 10 3 6 26 10 51 10 24
0 44 -4 44 -10z m280 0 c0 -5 -23 -10 -51 -10 -31 0 -48 4 -44 10 3 6 26 10
51 10 24 0 44 -4 44 -10z m-2205 -32 c-37 -22 -57 -46 -49 -60 4 -7 32 -45 61
-85 29 -40 53 -74 53 -77 0 -4 -26 -6 -58 -6 l-58 0 -58 72 -59 71 -21 -69
-22 -69 -47 -3 c-26 -2 -47 0 -47 5 0 4 17 58 37 119 l37 113 125 0 c99 0 122
-2 106 -11z m269 -15 c-4 -16 -13 -45 -21 -67 -23 -67 -25 -66 102 -66 63 0
115 -4 115 -9 0 -4 -5 -22 -11 -40 l-11 -31 -164 0 c-116 0 -164 3 -164 11 0
15 38 144 53 179 9 23 12 30 16 45 0 3 21 5 46 5 44 0 45 -1 39 -27z m393 10
c-28 -100 -31 -124 -17 -133 22 -14 111 -12 139 3 14 7 30 29 38 52 7 22 16
47 20 55 3 8 7 20 7 25 1 10 96 21 96 12 0 -17 -45 -145 -57 -164 -8 -12 -31
-33 -52 -45 -32 -20 -49 -23 -147 -23 -118 0 -137 6 -155 53 -6 17 -2 45 17
103 l27 79 44 0 c37 0 44 -3 40 -17z m550 0 c-3 -10 -19 -64 -36 -120 l-32
-103 -44 0 c-29 0 -45 4 -45 13 0 12 44 157 57 187 6 14 8 22 12 35 0 3 22 5
47 5 38 0 45 -3 41 -17z m269 -5 c-2 -13 -10 -45 -17 -71 -12 -41 -11 -49 1
-57 8 -6 68 -10 133 -10 64 0 117 -4 117 -9 0 -4 -5 -23 -11 -40 l-12 -33
-147 4 c-156 3 -173 8 -191 56 -6 17 -2 45 17 103 l27 79 44 0 c40 0 43 -2 39
-22z m434 12 c0 -6 36 -10 89 -10 50 0 93 5 96 10 7 11 95 14 94 3 0 -5 -17
-57 -37 -118 -37 -109 -37 -110 -70 -113 -60 -6 -64 0 -42 64 11 31 20 61 20
66 0 4 -40 8 -90 8 l-89 0 -21 -70 -21 -70 -44 0 c-37 0 -45 3 -45 18 0 16 39
142 57 182 6 14 8 21 12 35 2 10 91 5 91 -5z m2738 -4577 c-21 -2 -57 -2 -80
0 -24 2 -7 4 37 4 44 0 63 -2 43 -4z m-1321 -9 c-3 -3 -12 -4 -19 -1 -8 3 -5
6 6 6 11 1 17 -2 13 -5z m1612 -10 c216 -32 465 -97 557 -148 55 -29 -9 -18
-82 14 -125 57 -436 123 -669 143 -27 2 -19 4 24 5 35 1 111 -5 170 -14z
m-1687 -3 c-8 -5 28 -11 90 -15 240 -17 488 -79 612 -153 122 -73 280 -245
523 -568 135 -178 143 -188 196 -210 57 -24 434 -11 1017 35 135 10 317 24
405 30 167 12 442 44 452 53 3 3 -13 15 -35 26 -23 11 -43 25 -46 30 -3 5 16
-2 42 -15 26 -12 108 -39 182 -59 212 -58 431 -131 522 -174 100 -47 169 -93
280 -186 134 -113 175 -159 183 -208 18 -103 20 -111 35 -102 4 2 13 -10 20
-28 7 -17 33 -52 56 -77 48 -50 77 -124 67 -172 -5 -23 -3 -27 11 -22 10 4 18
0 23 -11 4 -13 -3 -26 -25 -44 -16 -14 -40 -45 -51 -68 -18 -37 -28 -44 -73
-58 -133 -39 -624 -114 -930 -141 l-196 -17 -74 26 c-65 23 -90 26 -223 28
-82 1 -189 1 -237 1 -84 -2 -88 -3 -122 -35 -62 -59 -166 -230 -179 -294 -5
-27 -2 -36 23 -57 16 -13 53 -29 81 -35 78 -17 563 -25 694 -12 314 31 1024
146 1189 192 56 15 89 52 84 91 l-5 32 23 -28 c13 -15 24 -35 24 -45 0 -32
-39 -69 -88 -85 -110 -35 -638 -128 -1022 -178 -155 -20 -215 -23 -525 -22
-278 0 -367 4 -433 16 -109 22 -169 51 -189 94 -16 33 -16 35 20 106 51 102
113 194 172 254 67 70 111 79 340 71 121 -5 165 -3 152 4 -61 36 -424 53 -495
24 -77 -33 -199 -187 -283 -359 l-34 -68 59 -54 c35 -31 80 -62 111 -73 89
-34 260 -46 633 -46 111 0 202 -3 202 -6 0 -3 -26 -12 -57 -20 -116 -28 -636
-5 -992 44 -80 11 -85 14 -92 39 -9 36 -2 40 61 28 29 -6 76 -10 104 -10 l51
1 -30 25 c-66 56 -119 86 -156 91 -37 5 -39 8 -39 41 l0 34 34 -26 c19 -14 36
-26 38 -26 2 0 1 37 -3 83 -33 366 -169 647 -383 786 -66 43 -187 81 -259 81
-97 0 -199 -46 -290 -130 -22 -19 -55 -43 -75 -52 -19 -10 -44 -25 -54 -34
-10 -10 -18 -13 -18 -7 0 6 -11 8 -24 6 -17 -4 -25 0 -29 14 -3 10 -4 -92 -3
-227 l1 -245 26 -12 c15 -7 32 -20 39 -28 19 -23 -12 -20 -164 16 -454 106
-630 147 -861 204 -383 94 -461 113 -662 164 -169 44 -181 46 -172 27 9 -19 9
-19 -8 1 -10 12 -29 26 -43 31 -22 8 -31 29 -69 148 -24 77 -56 164 -72 194
-30 56 -37 86 -19 75 6 -4 7 -12 4 -18 -5 -9 -4 -9 6 0 19 18 -13 100 -59 150
-42 45 -116 87 -172 98 -47 9 -105 -8 -160 -44 -24 -17 -47 -27 -51 -23 -4 4
-12 41 -18 82 -7 41 -17 87 -24 101 -12 24 -11 25 9 21 20 -3 23 2 29 44 3 26
6 64 6 85 0 21 5 50 11 66 6 15 12 36 13 45 0 10 25 43 54 73 29 30 81 92 114
137 34 46 96 124 139 174 73 85 78 94 72 127 -6 42 5 50 135 91 96 30 113 32
86 10 -18 -15 -18 -15 6 -10 127 27 298 39 532 40 142 1 258 4 258 8 0 4 -27
13 -60 20 -33 6 -60 16 -60 20 0 4 24 8 53 8 32 0 47 -4 39 -9z m2388 -217 c0
-2 -9 0 -20 6 -11 6 -20 13 -20 16 0 2 9 0 20 -6 11 -6 20 -13 20 -16z m50
-30 c0 -2 -9 0 -20 6 -11 6 -20 13 -20 16 0 2 9 0 20 -6 11 -6 20 -13 20 -16z
m220 -131 c0 -7 -39 17 -46 28 -3 6 5 3 20 -6 14 -10 26 -19 26 -22z m50 -29
c0 -2 -9 0 -20 6 -11 6 -20 13 -20 16 0 2 9 0 20 -6 11 -6 20 -13 20 -16z m70
-50 c0 -3 -13 4 -30 16 -16 12 -30 24 -30 26 0 3 14 -4 30 -16 17 -12 30 -24
30 -26z m90 -60 c0 -3 -13 4 -30 16 -16 12 -30 24 -30 26 0 3 14 -4 30 -16 17
-12 30 -24 30 -26z m65 -44 c10 -11 16 -20 13 -20 -3 0 -13 9 -23 20 -10 11
-16 20 -13 20 3 0 13 -9 23 -20z m-15 -52 c91 -66 270 -211 270 -219 0 -9
-274 194 -315 233 -32 29 -4 21 45 -14z m167 -23 c52 -26 87 -65 81 -90 -2 -8
-31 8 -83 47 -97 72 -93 68 -69 68 11 0 43 -11 71 -25z m-417 -146 c0 -6 -4
-7 -10 -4 -5 3 -10 11 -10 16 0 6 5 7 10 4 6 -3 10 -11 10 -16z m-3837 -343
c2 3 10 -2 17 -11 7 -8 18 -15 24 -15 6 0 17 -9 24 -20 15 -24 14 -24 -31 -5
-46 19 -98 19 -144 0 -46 -19 -53 -12 -21 20 32 32 66 44 100 35 14 -5 28 -6
31 -4z m-216 -138 c-3 -8 -6 -5 -6 6 -1 11 2 17 5 13 3 -3 4 -12 1 -19z m-41
-174 c-8 -38 -17 -96 -22 -129 -7 -58 -7 -59 -16 -27 -9 34 7 143 32 206 18
47 21 24 6 -50z m3051 -40 c33 -7 51 -13 116 -43 44 -19 47 -23 35 -39 -12
-15 -11 -15 15 1 20 13 27 14 27 4 0 -7 14 -28 31 -46 79 -87 146 -204 130
-229 -3 -6 -26 16 -50 48 -23 33 -71 86 -105 118 -78 72 -150 103 -261 109
-69 5 -89 2 -135 -18 -30 -13 -73 -38 -97 -56 -41 -31 -63 -35 -63 -12 0 6 6
7 13 3 9 -5 9 -4 1 5 -18 19 19 85 61 111 19 12 35 27 35 32 0 6 2 9 5 6 3 -3
27 1 53 8 45 12 131 11 189 -2z m-414 -396 c-26 -80 -27 -91 -28 -286 0 -155
-3 -202 -12 -202 -7 0 -13 8 -13 19 0 29 -17 37 -125 60 -851 186 -1703 378
-1730 390 -39 18 64 12 133 -8 37 -11 141 -36 232 -56 91 -20 233 -51 315 -69
83 -19 227 -51 320 -71 94 -21 206 -46 250 -56 44 -10 127 -27 185 -39 58 -12
143 -30 190 -41 47 -11 117 -26 155 -32 l70 -12 1 135 c0 143 15 226 56 322
32 76 33 42 1 -54z m857 -99 c0 8 2 12 5 9 3 -3 3 -13 -1 -22 -7 -19 -24 -11
-24 12 0 15 2 15 10 2 8 -12 10 -12 10 -1z m2500 -141 c0 -6 -9 1 -20 15 -11
14 -20 29 -20 34 1 11 40 -37 40 -49z m-335 22 c-16 -4 -39 -8 -50 -8 -16 0
-15 2 5 8 14 4 36 8 50 8 22 0 22 -1 -5 -8z m-472 -67 c-7 -2 -19 -2 -25 0 -7
3 -2 5 12 5 14 0 19 -2 13 -5z m-98 -13 c-27 -5 -70 -8 -95 -7 -45 0 -45 0 10
7 30 4 73 7 95 7 38 0 37 0 -10 -7z m-177 -17 c-10 -2 -26 -2 -35 0 -10 3 -2
5 17 5 19 0 27 -2 18 -5z m-90 -10 c-10 -2 -28 -2 -40 0 -13 2 -5 4 17 4 22 1
32 -1 23 -4z m-743 -73 c-3 -5 -11 -10 -16 -10 -6 0 -7 5 -4 10 3 6 11 10 16
10 6 0 7 -4 4 -10z m472 -92 c-3 -7 -5 -2 -5 12 0 14 2 19 5 13 2 -7 2 -19 0
-25z m1503 -23 c-7 -8 -17 -12 -22 -9 -5 3 -1 15 9 26 20 22 32 6 13 -17z
m-1510 -70 c0 -14 -4 -25 -9 -25 -4 0 -6 11 -3 25 2 14 6 25 8 25 2 0 4 -11 4
-25z m2428 -1111 c452 -4 822 -10 822 -15 0 -9 -8362 -2 -9307 7 -321 4 -583
10 -583 15 0 9 7682 3 9068 -7z m-8247 -380 c163 -48 289 -184 329 -353 17
-74 8 -211 -20 -284 -44 -115 -150 -222 -268 -268 -48 -20 -76 -23 -177 -23
-101 0 -129 3 -177 23 -118 46 -223 151 -269 268 -20 49 -23 77 -24 183 0 121
1 127 33 194 18 39 49 90 69 114 46 56 139 117 217 142 77 24 212 26 287 4z
m5258 -26 c11 -10 14 -10 18 0 3 6 13 12 24 12 19 0 19 -2 4 -30 -15 -29 -15
-32 5 -60 21 -29 21 -30 2 -30 -11 0 -25 7 -33 16 -11 14 -13 14 -21 0 -5 -9
-18 -16 -29 -16 l-21 0 21 33 c18 30 19 36 6 53 -8 10 -15 22 -15 27 0 11 25
8 39 -5z m195 -10 c15 -25 -3 -52 -38 -56 -18 -2 -26 -9 -26 -23 0 -10 -7 -19
-15 -19 -12 0 -15 13 -15 61 l0 60 41 -3 c27 -2 46 -9 53 -20z m3566 -293 l0
-105 -1915 0 -1915 0 0 98 c0 54 3 102 7 105 3 4 865 7 1915 7 l1908 0 0 -105z
m-3823 -162 c-3 -10 -5 -4 -5 12 0 17 2 24 5 18 2 -7 2 -21 0 -30z m350 0 c-3
-10 -5 -4 -5 12 0 17 2 24 5 18 2 -7 2 -21 0 -30z m-321 -54 c10 -17 -23 -46
-37 -32 -7 7 -9 19 -6 27 7 18 33 21 43 5z m344 3 c0 -11 -22 -32 -33 -32 -5
0 -4 6 2 13 6 8 8 17 4 20 -3 4 1 7 10 7 10 0 17 -4 17 -8z m35 -42 c0 -8 -10
-16 -22 -18 -22 -3 -32 16 -16 32 12 11 38 2 38 -14z m40 -40 c0 -8 -10 -16
-22 -18 -22 -3 -32 16 -16 32 12 11 38 2 38 -14z m-5057 -156 c23 -16 29 -48
12 -59 -7 -4 -7 -12 0 -25 14 -26 13 -30 -9 -30 -10 0 -21 7 -25 15 -3 8 -10
15 -16 15 -5 0 -10 -7 -10 -15 0 -8 -7 -15 -15 -15 -12 0 -15 14 -15 65 0 64
0 65 28 65 15 0 38 -7 50 -16z m162 -4 c57 -57 -15 -150 -79 -103 -34 26 -40
74 -12 102 27 27 65 27 91 1z m160 0 c20 -20 26 -65 12 -86 -13 -20 -52 -35
-72 -29 -73 23 -61 135 15 135 14 0 34 -9 45 -20z m90 -2 l0 -21 24 22 c13 13
32 21 41 19 15 -3 14 -6 -5 -31 -23 -28 -22 -36 6 -74 15 -22 15 -23 -2 -23
-10 0 -28 10 -41 22 l-23 21 0 -21 c0 -15 -6 -22 -20 -22 -18 0 -20 7 -20 58
0 32 3 62 7 65 14 15 33 6 33 -15z m148 -46 c3 -57 1 -62 -18 -62 -18 0 -20 6
-20 58 0 32 3 62 7 66 17 17 28 -5 31 -62z m132 48 c0 -16 -7 -20 -32 -21 -31
-2 -31 -2 -5 -6 31 -5 38 -33 8 -33 -11 0 -23 -4 -26 -10 -4 -6 6 -10 23 -10
17 0 32 -6 36 -15 4 -12 -4 -15 -44 -15 l-50 0 0 65 0 65 45 0 c38 0 45 -3 45
-20z"/>
<path d="M10254 10940 c-25 -10 -68 -123 -62 -162 3 -21 9 -23 66 -26 87 -4
102 8 132 103 20 65 22 78 9 86 -18 11 -117 11 -145 -1z m71 -17 c-39 -2 -73
-9 -77 -16 -5 -8 -8 -8 -8 -1 0 20 14 24 84 22 l71 -2 -70 -3z m25 -138 c-9
-11 -32 -15 -81 -15 -59 0 -69 2 -68 18 0 10 3 12 6 5 8 -20 132 -17 140 2 3
9 8 14 11 11 3 -3 -1 -12 -8 -21z"/>
<path d="M4013 10550 c-11 -30 -11 -30 22 -30 25 0 34 5 39 23 9 35 8 37 -22
37 -22 0 -30 -7 -39 -30z"/>
<path d="M4698 10525 c-10 -13 -18 -27 -18 -31 0 -4 6 0 13 11 8 10 19 15 25
11 8 -5 12 0 12 13 0 27 -11 26 -32 -4z"/>
<path d="M5438 10523 c6 -2 18 -2 25 0 6 3 1 5 -13 5 -14 0 -19 -2 -12 -5z"/>
<path d="M5750 10554 c-15 -38 -13 -41 19 -36 22 3 32 12 40 33 10 28 9 29
-20 29 -22 0 -32 -6 -39 -26z"/>
<path d="M6688 10525 c-10 -13 -18 -27 -18 -31 0 -4 6 0 13 11 8 10 19 15 25
11 8 -5 12 0 12 13 0 27 -11 26 -32 -4z"/>
<path d="M7048 10523 c6 -2 18 -2 25 0 6 3 1 5 -13 5 -14 0 -19 -2 -12 -5z"/>
<path d="M1491 10559 c-16 -46 -15 -49 24 -49 29 0 37 5 45 26 17 44 13 54
-24 54 -29 0 -36 -4 -45 -31z"/>
<path d="M2035 10558 c-16 -40 -12 -48 25 -48 31 0 50 22 50 59 0 17 -6 21
-30 21 -25 0 -33 -6 -45 -32z"/>
<path d="M4155 5444 c-157 -15 -235 -29 -267 -45 -44 -22 -168 -161 -238 -265
-39 -59 -50 -84 -55 -131 -3 -32 -8 -67 -10 -79 -4 -19 4 -22 123 -43 160 -29
833 -159 1052 -204 153 -32 166 -36 178 -61 7 -14 24 -34 38 -42 34 -23 155
-44 250 -44 58 0 85 -4 93 -14 15 -18 11 -37 -11 -54 -10 -7 -18 -19 -18 -27
0 -28 -43 -62 -75 -59 -65 8 -152 26 -198 42 l-49 17 -141 -145 -142 -146 -70
4 c-38 2 -84 4 -102 4 -18 1 -29 6 -26 11 4 6 -5 8 -21 5 -14 -3 -26 -1 -26 4
0 5 -4 7 -9 3 -5 -3 -12 -1 -16 5 -4 6 -11 8 -16 4 -6 -3 -13 5 -16 17 -6 23
-7 23 -19 -6 -11 -25 -13 -26 -14 -9 0 16 -8 23 -31 28 -17 3 -35 3 -40 0 -5
-3 -9 -1 -9 4 0 8 -49 20 -105 25 -11 1 -23 5 -26 9 -3 5 -31 9 -62 10 -31 2
-57 7 -57 11 0 5 -3 6 -8 3 -4 -2 -37 1 -73 8 -62 11 -159 13 -204 3 -11 -3
-40 -10 -63 -17 -33 -8 -47 -8 -58 1 -17 14 -7 -20 41 -136 18 -44 45 -111 60
-150 l26 -70 132 -2 c73 -1 175 -9 227 -18 119 -20 121 -20 202 -38 l67 -14 4
66 3 66 2 -76 2 -76 42 -7 c23 -4 49 -13 58 -20 8 -8 49 -16 95 -19 44 -3 109
-14 145 -26 92 -29 274 -84 280 -86 53 -11 342 -122 444 -169 39 -18 81 -36
94 -40 l22 -7 0 209 0 210 -27 5 c-16 3 -55 13 -88 22 -33 9 -68 17 -77 18
-10 1 -18 7 -18 15 0 7 -4 11 -9 8 -13 -8 -111 15 -111 26 0 5 -4 7 -9 4 -5
-4 -22 -1 -38 5 -15 7 -32 13 -38 13 -5 1 -21 7 -34 15 -20 11 -22 11 -15 -1
4 -7 -2 -5 -13 5 -11 9 -36 17 -56 17 -20 0 -38 4 -41 9 -4 5 -24 12 -46 16
-22 4 -40 10 -39 13 1 11 199 188 274 244 39 29 76 59 83 66 7 6 19 12 25 12
7 0 61 9 122 20 94 16 113 23 133 45 18 21 20 30 11 41 -18 22 -8 24 54 10 31
-7 54 -9 51 -5 -9 15 13 10 26 -7 9 -10 26 -14 49 -12 55 5 53 37 -9 147 -153
276 -453 625 -603 699 -89 45 -245 89 -381 107 -106 15 -496 28 -581 19z
m-488 -496 c-3 -7 -5 -2 -5 12 0 14 2 19 5 13 2 -7 2 -19 0 -25z m1699 -198
c69 -39 94 -72 94 -123 l0 -40 -187 7 c-180 6 -273 13 -300 21 -21 7 -15 23
10 28 19 4 19 4 -5 6 -40 2 -41 14 -5 48 63 60 130 81 252 82 82 1 95 -2 141
-29z m282 -126 c21 -14 76 -113 68 -121 -2 -2 -21 2 -42 9 -35 12 -39 16 -37
43 3 32 -8 51 -47 79 l-25 18 30 -7 c17 -3 40 -13 53 -21z m-248 -68 c0 -2 -7
-7 -16 -10 -8 -3 -12 -2 -9 4 6 10 25 14 25 6z m-1033 -493 c-2 -16 -4 -3 -4
27 0 30 2 43 4 28 2 -16 2 -40 0 -55z"/>
<path d="M3580 4691 c-14 -27 -13 -66 3 -78 17 -15 87 -26 87 -15 0 6 -11 13
-25 16 -16 4 -25 13 -25 27 0 11 -6 22 -14 25 -8 3 -12 13 -9 25 7 25 -3 25
-17 0z"/>
<path d="M7885 4635 c297 -91 505 -178 678 -282 67 -40 90 -38 26 2 -185 118
-523 261 -709 301 -112 24 -110 14 5 -21z"/>
<path d="M3710 4638 c0 -14 30 -22 41 -11 7 7 2 12 -15 15 -14 3 -26 1 -26 -4z"/>
<path d="M6603 4569 c10 -6 62 -26 115 -44 206 -71 251 -88 361 -141 234 -112
464 -263 555 -365 26 -30 42 -43 35 -29 -54 108 -397 337 -692 465 -145 62
-434 151 -374 114z"/>
<path d="M4406 4515 c-11 -30 -6 -83 10 -99 22 -23 109 -20 163 4 49 22 49 24
7 34 -25 6 -28 5 -17 -7 16 -21 -6 -28 -54 -17 -46 10 -66 27 -46 39 9 6 6 10
-13 15 -17 4 -26 12 -24 23 4 21 -18 28 -26 8z"/>
<path d="M8650 4307 c0 -2 28 -24 63 -48 34 -24 87 -66 118 -94 31 -27 21 -16
-21 25 -64 62 -160 133 -160 117z"/>
<path d="M8915 4066 c-11 -8 -76 -19 -145 -25 -69 -7 -210 -23 -315 -36 -104
-14 -264 -31 -355 -40 -91 -8 -209 -23 -263 -32 -99 -16 -155 -15 -597 13 -67
4 -419 54 -490 69 -108 24 -215 45 -226 45 -12 0 -12 -4 2 -25 25 -38 116 -68
185 -61 37 5 115 -2 230 -18 194 -27 345 -42 558 -55 109 -7 147 -13 159 -25
15 -15 12 -16 -38 -15 -30 0 -92 4 -138 8 -46 3 -86 3 -89 -1 -2 -5 -9 -5 -15
-2 -7 4 -8 2 -4 -4 4 -7 13 -12 21 -12 8 0 17 -5 21 -12 5 -8 0 -9 -15 -5 -29
7 -51 -1 -51 -20 0 -11 -6 -8 -19 8 -18 22 -18 23 2 40 21 16 21 17 -11 23
-17 4 -35 5 -39 3 -11 -7 -229 17 -353 37 -52 9 -106 16 -119 16 -22 0 -23 -1
-8 -22 9 -15 25 -23 43 -24 204 -4 246 -7 224 -14 -16 -5 -19 -8 -8 -9 11 -1
15 -6 12 -16 -4 -8 -1 -15 6 -15 6 0 14 9 17 20 5 20 33 29 33 10 0 -5 10 -10
23 -10 12 0 32 -1 45 -1 12 0 22 -4 22 -10 0 -5 9 -9 20 -9 11 0 37 -16 58
-35 22 -19 43 -31 47 -27 5 4 5 1 1 -5 -4 -7 -2 -13 3 -13 6 0 11 -4 11 -10 0
-5 -9 -10 -19 -10 -29 0 -35 -17 -9 -26 14 -4 25 -1 33 10 10 13 32 16 116 16
57 0 118 4 136 9 26 7 31 7 26 -5 -7 -19 4 -18 96 11 57 18 137 31 288 45 332
32 467 48 643 77 91 15 197 28 235 29 91 1 91 1 73 22 -21 23 -39 82 -31 96 4
6 -1 5 -10 -3 -26 -21 -34 -4 -15 30 9 16 16 29 15 28 -1 0 -11 -6 -22 -13z
m-1295 -246 c0 -5 -4 -10 -10 -10 -5 0 -10 5 -10 10 0 6 5 10 10 10 6 0 10 -4
10 -10z m-206 -15 c-4 -8 -11 -12 -16 -9 -6 4 -5 10 3 15 19 12 19 11 13 -6z"/>
<path d="M6840 3881 c0 -9 109 -109 135 -123 26 -15 181 -21 218 -9 20 7 37
15 37 18 0 3 -9 18 -21 34 -27 39 -74 41 -83 4 -5 -21 -12 -25 -44 -24 l-37 2
33 6 c18 3 33 9 32 14 0 4 0 12 0 17 0 6 -7 10 -15 10 -8 0 -15 -6 -15 -14 0
-7 -15 -16 -32 -20 -26 -5 -30 -9 -18 -16 12 -8 11 -10 -7 -10 -39 0 -71 18
-120 70 -46 48 -63 60 -63 41z"/>
<path d="M6936 3872 c-7 -6 23 -42 35 -42 4 0 7 9 6 19 -1 19 -30 35 -41 23z"/>
<path d="M7010 3841 c0 -6 5 -13 10 -16 6 -3 10 -2 10 4 0 6 7 7 17 4 11 -4
14 -3 9 5 -9 14 -46 16 -46 3z"/>
<path d="M7605 3730 c-3 -5 -2 -10 4 -10 5 0 13 5 16 10 3 6 2 10 -4 10 -5 0
-13 -4 -16 -10z"/>
<path d="M7478 3723 c6 -2 18 -2 25 0 6 3 1 5 -13 5 -14 0 -19 -2 -12 -5z"/>
<path d="M7038 3703 c7 -3 16 -2 19 1 4 3 -2 6 -13 5 -11 0 -14 -3 -6 -6z"/>
<path d="M7088 3693 c6 -2 18 -2 25 0 6 3 1 5 -13 5 -14 0 -19 -2 -12 -5z"/>
<path d="M1610 1345 c-82 -37 -123 -106 -123 -210 -1 -53 4 -80 21 -112 61
-118 229 -148 330 -59 50 43 72 98 72 177 0 82 -28 141 -89 184 -35 24 -53 30
-109 32 -45 2 -79 -2 -102 -12z"/>
<path d="M7220 1540 c0 -5 7 -10 15 -10 8 0 15 5 15 10 0 6 -7 10 -15 10 -8 0
-15 -4 -15 -10z"/>
<path d="M7227 1339 c162 -6 198 -10 225 -26 46 -26 51 -74 12 -100 -25 -16
-52 -18 -226 -18 -152 0 -198 -3 -198 -12 0 -10 387 -13 1900 -13 l1900 0 0
90 0 90 -1902 -2 c-1047 0 -1816 -4 -1711 -9z"/>
<path d="M7025 1040 c-3 -5 -1 -10 4 -10 6 0 11 5 11 10 0 6 -2 10 -4 10 -3 0
-8 -4 -11 -10z"/>
<path d="M7405 1010 c-3 -5 -1 -10 4 -10 6 0 11 5 11 10 0 6 -2 10 -4 10 -3 0
-8 -4 -11 -10z"/>
<path d="M7445 970 c-3 -5 -1 -10 4 -10 6 0 11 5 11 10 0 6 -2 10 -4 10 -3 0
-8 -4 -11 -10z"/>
<path d="M2380 780 c0 -5 5 -10 10 -10 6 0 10 5 10 10 0 6 -4 10 -10 10 -5 0
-10 -4 -10 -10z"/>
<path d="M2514 775 c-9 -23 4 -47 23 -43 11 2 19 14 21 31 3 22 -1 27 -18 27
-11 0 -23 -7 -26 -15z"/>
<path d="M2674 776 c-9 -24 4 -48 23 -44 12 2 18 12 18 28 0 29 -32 41 -41 16z"/>
</g>
</svg>
